/* XPM */
static char * addcons_xpm[] = {
"20 20 4 1",
" 	c None",
".	c #FFFFFF",
"+	c #000000",
"@	c #DDDDDD",
"               .+.  ",
" ++++++++++++...+...",
" +..........+.+++++.",
" +..........+...+...",
" +.....@@@@@+  .+.  ",
" +....+++++++++...+ ",
" +....+...........+ ",
" +....+@@@@@@@@@@.+ ",
" +.+++++++++++++@.+ ",
" +.+...........+@.+ ",
" +++...........+@.+ ",
"   +...........+@.+ ",
"   +...........+@.+ ",
"   +...........+@.+ ",
"   +...........++++ ",
"   +...........+    ",
"   +...........+    ",
"   +...........+    ",
"   +++++++++++++    ",
"                    "};
