/* XPM */
static char * b18_xpm[] = {
"18 18 48 1",
" 	c None",
".	c #373737",
"+	c #2A2A2A",
"@	c #000000",
"#	c #959595",
"$	c #717171",
"%	c #5F5F5F",
"&	c #3A3A3A",
"*	c #262626",
"=	c #8E8E8E",
"-	c #111111",
";	c #F8F8F8",
">	c #F1F1F1",
",	c #CDCDCD",
"'	c #FFFFFF",
")	c #B1B1B1",
"!	c #121212",
"~	c #080808",
"{	c #AAAAAA",
"]	c #D4D4D4",
"^	c #8A8A8A",
"/	c #777777",
"(	c #555555",
"_	c #6A6A6A",
":	c #BFBFBF",
"<	c #C6C6C6",
"[	c #A6A6A6",
"}	c #878787",
"|	c #808080",
"1	c #838383",
"2	c #1A1A1A",
"3	c #9C9C9C",
"4	c #7C7C7C",
"5	c #0D0D0D",
"6	c #787878",
"7	c #1B1B1B",
"8	c #616161",
"9	c #747474",
"0	c #5B5B5B",
"a	c #2E2E2E",
"b	c #929292",
"c	c #171717",
"d	c #4C4C4C",
"e	c #404040",
"f	c #0F0F0F",
"g	c #242424",
"h	c #444444",
"i	c #484848",
"                  ",
"        .+        ",
"       @#$@       ",
"       %&*=       ",
"      -@;>@@      ",
"     *,';'')!     ",
"    ~)''{]''^/    ",
"    @''{(_:']@    ",
"    @>''{]''<@    ",
"    %@'';'''@[    ",
"     -#}||=1@     ",
"     23;''>4@     ",
"     56||||_@     ",
"     786||90-     ",
"  %@@@@a{b7@@@@/  ",
" c3]]]]>9b>]]],#@ ",
" ~d5@aef=%7eg@2hi ",
"                  "};
