/* XPM */
static char * backn_xpm[] = {
"24 16 2 1",
" 	c None",
".	c #000000",
"                        ",
"                        ",
"    ...       .     .   ",
"    ...      ..    ..   ",
"    ...     ...   ...   ",
"    ...    ....  ....   ",
"    ...   ..... .....   ",
"    ...  ............   ",
"    ...  ............   ",
"    ...   ..... .....   ",
"    ...    ....  ....   ",
"    ...     ...   ...   ",
"    ...      ..    ..   ",
"    ...       .     .   ",
"                        ",
"                        "};
