/* XPM */
static char * back1_xpm[] = {
"24 16 2 1",
" 	c None",
".	c #000000",
"                        ",
"                        ",
"       .                ",
"      ..        ..      ",
"     ...       ...      ",
"    ....      ....      ",
"   .....        ..      ",
"  ......        ..      ",
"  ......        ..      ",
"   .....        ..      ",
"    ....        ..      ",
"     ...        ..      ",
"      ..                ",
"       .                ",
"                        ",
"                        "};
