/* XPM */
static char * dead_xpm[] = {
"20 20 33 1",
" 	c None",
".	c #020202",
"+	c #7E7A0E",
"@	c #BE9612",
"#	c #D2B60A",
"$	c #EADE06",
"%	c #FE5656",
"&	c #BD9212",
"*	c #DAC20A",
"=	c #C29E0E",
"-	c #E6D606",
";	c #F3EE02",
">	c #C6A20E",
",	c #E2CE06",
"'	c #CAAA0E",
")	c #EEE206",
"!	c #D6BE0A",
"~	c #FEFE02",
"{	c #DAC60A",
"]	c #EEE606",
"^	c #FAF602",
"/	c #CEAE0E",
"(	c #DECA0A",
"_	c #EADA06",
":	c #C29A11",
"<	c #D6BA0A",
"[	c #E4D206",
"}	c #C8A60E",
"|	c #F6F202",
"1	c #F2EA02",
"2	c #D0B20E",
"3	c #F2E602",
"4	c #DEC60A",
"      .......       ",
"    ..._-,(*...     ",
"   ..])$$-,{!<..    ",
"  ..1;;1)_-({<2..   ",
" ..;|^|1]_-,{!2'..  ",
" .];.~^.]$-.{!./}.  ",
"..)1|+.1]$[,.+#'>.. ",
"._)1;.+1)_-(+.2/}:. ",
".-_).])._-,.!<.'>:. ",
".[-__$$_-,(*!#/}>@. ",
".(,-[-[-[({!<2/>=@. ",
".{{(...........::&. ",
"..***{***.%%%.@:&.. ",
" .<!!!!!<.%%%.@:&.  ",
" ..###222.%%%.@&..  ",
"  ..'///'}...@&..   ",
"   ..}>>>=:@@&..    ",
"    ...=::@&...     ",
"      .......       ",
"                    "};
