/* XPM */
static char * fallback_xpm[] = {
"210 60 49 1",
" 	c None",
".	c #030303",
"+	c #D5D7D7",
"@	c #979898",
"#	c #888B89",
"$	c #141414",
"%	c #626463",
"&	c #242424",
"*	c #5A5A5A",
"=	c #525654",
"-	c #2B2B2B",
";	c #4C4C4C",
">	c #424242",
",	c #CACCCB",
"'	c #3E3E3E",
")	c #323332",
"!	c #BEC0C0",
"~	c #8E908E",
"{	c #DEE0E1",
"]	c #80807F",
"^	c #B2B4B3",
"/	c #3B3B3A",
"(	c #6E6B6A",
"_	c #363636",
":	c #A7A8A8",
"<	c #929292",
"[	c #9E9E9E",
"}	c #695142",
"|	c #777877",
"1	c #E4E6E5",
"2	c #0E120E",
"3	c #0D0E0D",
"4	c #565656",
"5	c #563202",
"6	c #62564E",
"7	c #755A48",
"8	c #1C1C1C",
"9	c #624C3E",
"0	c #81624F",
"a	c #AE896F",
"b	c #675247",
"c	c #EDF1F1",
"d	c #5D483A",
"e	c #0A0A0A",
"f	c #B3977D",
"g	c #B09076",
"h	c #886F5C",
"i	c #725644",
"j	c #625246",
"555555555555555555555555555555555555555555555555555555555555555555555555555555555555555555555555555555555555555555555555555555555555555555555555555555555555555555555555555555555555ggfffggggagggggggffaagggffffff",
"555555555555555555555555555555555555555555555555555555555555555555555555555555555555555555555555555555555555555555555555555555555555555555555555555555555555555555555555555555555555fgffffggfggagggggfffggggfffffg",
"55555555555555555555555555555555555555&-)_-&-5555555555555555555555555555$--2-555555555555555555555555558855555555555555555555555555555555555555555555555555555555555555555555555555fgffffggffgggaaggffgggggfffffg",
"555555&3333-&3333&&3332555555555555558->$-&8$&55555555555555555555555555&/,+;85555555555555555555588555&|;855585555555555555555555555588555555555555555555555555555&8885555555555555ggfffffgffggaagggffgfggfggffgg",
"555555&>!^_&84!!>&8>!^_55555555555555-',|$8#~$-5555555555555555555555555&>114&55555555555555555558=)85&*1^&5584-&555555555555555555555$$-55555555555555555555555558&(()2555555555555fgffffggfffgaaaggggffffffgfggg",
"555555&%11;33|cc%33%c1=555555555555555&!{>e^,-ee25555555555555555555555558^!&5555555555555555555541^&55-|>&5&*1:855555555555555555555....8555555555555555555555558&!1c+>$55555555555fgfffffgffffgaaggggffffgggfggg",
"555555&*cc+,,{cc+,,{c145555555555555558!c~*{{|!^%885555555555555555555552),+>3&555555555555-8$&55-#*&55&&8555-~=855888555555555555555-$2-5555555555555555555555558*cccc@255555555555fgfffffggfffgaagggggggffgffgag",
"555555&4{1{{1{{{1{1{{+>555555555555558$@c11c1^cc1!'855555555555555555583*,cc+%28555555555558#[&55&8)&558()555&&8558(^-55555555555555558255555555555555555555555558;1ccc]$55555555555fgf:ffgggfffggaaagggggffggggag",
"555555&$_;4444444444;)255555555555558-^{{ccccccccc,>855555555555555558&<1cccc1[-$55555555558^,-5558]-55&@>55&('5558~{;555555555555555&$$85555555555555555555555555$~1c^8855555555555ffffffgaagfffgaaaaggggfffgggag",
"55555558e(,,,,,,,,,,*e&55555555555552#+**1ccccccccc!-855555555555555&8:1cc11ccc^-8555555555-_/&-558#%858:;&5-:-5558)>&555555555555558/:^=8555555555555555555555558(!1c,]&85555555555ffffffgaggfffgaaagggggffffgggg",
"5555555588|~~~~~~~~($855555555555555$!^8#ccccccccccc<2555555555555553#1ccc[#1ccc[2-5555555555$|-55&(:85&!%8$*^8558|-55555555558$$$858^^[!--&$2$855555555555555558@1ccccc^&8555555555ffgfffgaggfffgaaagagfffffffggg",
"55555555588|]]]]]]($8555555555555555&{,#1ccccc1ccccc{>8555555555555--+cc1+|*+1cc+/&55555555555>[85&>+'2_+]$$:[258*#85555555552/][#=8-+(*+>$;][#>255555555555555&;1ccccccc|8555555555fffgffggggfggggaaggggfffffffgg",
"5555555555>1cccccc{)5555555555555558=1cccccccc^cccccc:35555555555558;1cc@)$2-|ccc%855555555555$:#$&)+<.>1@./{|$8>,)555555555$({cccc!=*,,|;^1ccc1]355555555555558(cccccccc:$555555555ffgffffgggggaggaaggggffffffggg",
"5555555555>1cccccc+)5555555555555553@cccccccc{|1ccccc{)855555555555&=1cc+^*;^,cc1%8555555555558;{(2$!+&41:$<1=e),[$55555555&'{cccccc+*(<;,cccccc1;85555555555558*cccccccc@$555555555ffggfffgggfgagaaagggfffgffgggf",
"5555555555>1cccccc+)55555555555555$_+ccccccc1<'{cccccc#355555555555&'{cccc~|1ccc1;85555555555553^+;e^c*41:-+{_8:{>$555555558(cccccccc,)-^cccccccc#$5555555555555&!cccccc{;8555555555fgggggfgggfgaagaagggggfffffgff",
"5555555555>1cccccc+)5555555555555&2^ccccccc+#8_1cccccc,$55555555555-$[cccc{+cccc^8-555555555555$41!8*!>8|>$[@$]c:35555555558|cccccccc1%;1cccccccc<$55555555555558',cccc+%$5555555555fggffggggfggaaaaagggggfffffgff",
"5555555555>1cccccc{)5555555555555$%{{cccc1:>$$*ccccccc{_8555555555558&#,ccccc1+@-$55555555555555$:!)_|#@@@<];&#,>2555555555&41cccccccc[]ccccccccc(855555555555588|+cccc{<-$555555555fgafgggaaggggaaaagggfggffffggf",
"5555555558&[^:^::^@8&555555555555$!#[ccc!*885$#cccccccc%855555555555583&;*%(*;-3$555555555555555$8|^{c1111111,@'$5555555555-8!cccccccc:#cccccccc+&&55555555555&&:cccccccc!/$55555555fgggfgggaggggaaaggggggggffffff",
"55555555&$>44444444'2-55555555555&+:{cc[&$558-,cccccccc~25555555555555$|@@@@<@#855555555555555555&!,^~||]||]:!+*&555555555558',ccccccc[]ccccccc+*25555555555558[cccccccccc!&&5555555ggagffgaaagggaaaggggggggfffffg",
"5555555-e%{11111111+=3555555555552@1!^+)85588<ccccccccc!355555555555558<^:[[:^:&55555555555555555$;[!+{{{{{{,:]8&555555555555$_!cc1+![4>[^,1cc,;35555555555558;1ccccccccccc|$5555555ggggfffgaaggggagggggfffgggffff",
"555555538>**********'$25555555555&&*_^]$558&~1ccccccccc,$5555555555555$|!,,,,!]8555555555555555558@+,:<~#~~[^+,)555555555555558&]@(*=(##|**(~#-$5555555555555$[cccccccccccc!85555555ggagggggaagggggggffgggggaagfff",
"555555&;!,,,,,,,,,,,,!'55555555555&&8/8-58):ccccccccccc+855555555555558(,{{{{,]$55555555555555555&'<^,++++++![(8555555555555555&8]!,,,,!,,,,~&&555555555555558!cccccccccccc{'5555555ggaggggggagggagggfffgggffgggfg",
"555555&%ccccccccccccc1;55555555555555&55$-!cccccccccccc+855555555555555$8/''/&$555555555555555555&*{{!^[[[[!+1:85555555555555555-@]]######]]@'&55555555555555)+cccccccccccc1*5555555ggaagggggggggaagggffgfggffgfff",
"5555533-%%(%%%(%((%%(%&22555555555555555$[ccccccccccccc,85555558$$888$28e;*;*e8288888$85555555555&8%|]<@@@@#|(/85555555555555555-:+,!!^^!!,,^'&55555555555555_+cccccccccccc1%5555555ggaagfggaggggaaggggfffggffffff",
"55555e]~#~~~~~#~~~~~~~~|.555555555555555-+ccccccccccccc,$55555&e],{+,:|*#+(=+@*([,+{+~2855555555558!ccccccccc{*85555555555555555&(%(]]]]]](%()&555555555555558^,,,,,+++,,,,!'5555555aaggffgggggggaaagggfffffgffgff",
"55555e]@@@@@@@@@@@@@@@@|.555555555555558-,{{{111111111{^255555-2<c{+{cccc!&8^ccc1{+{1:$&55555555558%^,,,,,,,!<-855555555555555558:,,^:[[:^!,^-55555555555555523$$$2$8$$2$$$$35555555gagggfgggggaaaaaaggfffggggfgfg",
"555558$$$$$$$$$$$$$$$$$$8555555555555555e&///''>>>>;>>/83555555&$%/-)*#[|&$88|[<%_-/%8&5555555555558$8$$88$$$8&55555555555555555$8832222223$8$55555555555555555555555555555555555555ggaaggggggggggaaaggggffgffggaa",
"55555555555555555555555555555555555555555555555555555555555555558$&55&8$$&55&8$8&55&885555555555555555555555555555555555555555555555555555555555555555555555555555555555555555555555fgggffggggggggaaaggggfffggffgg",
"555555555555555555555555555555555555555555555555555555555555555555555555555555555555555555555555555555555555555555555555555555555555555555555555555555555555555555555555555555555555ggggggggggfgfggaggfgffgggggggg",
"555555555555555555555555555555555555555555555555555555555555555555555555555555555555555555555555555555555555555555555555555555555555555555555555555555555555555555555555555555555555ggggggfgagagfgggggffffgffgfffg",
"555555555555555555555555555555555555555555555555555555555555555555555555555555555555555555555555555555555555555555555555555555555555555555555555555555555555555555555555555555555555h0679d}i}}0hh00077}ii00hhh0700",
"5555555555555555555555555555555555555555555555555555555555555555555555555555555555555555555555555555555555555555555555555555555555555555555555555555555555555555555555555555555555557ijdddi777000007ii9d}}0hhh0070",
"5555555555555555555555555555555555555555555555555555555555555555555555555$ee$5555555555555555555555555558&55555555555555555555555555555-555555555555555555555555555555555555555555559jddd}i0h000007i77b76i00hh0000",
"555555&333355333355333355555555555555&32858385555555555555555555555555555e...&555555555555555555558&5558*)8555855555555555555555555555$2555555555555555555555555555555555555555555556%6i070h00h00i7h0i9760hhhh077i",
"555555&....5$....$5....55555555555555&...$8..8555555555555555555555555555e...&5555555555555555555$;&85&'1#855$;&&55555555555555555555$ee$&55555555555555555555555553...8555555555555%6j70hhhhh0ii00hh7ib60hhh0iiii",
"555555&................555555555555555e..e3..e8&5555555555555555555555555$..255555555555555555555){~855$)885&'1|$55555555555555555555$ee$8555555555555555555555555e.....855555555555%jj9i0h070070hhhh0ibb700077i7i",
"555555&................555555555555555e.e48...--e2-5555555555555555555558....25555555555555-82&55$;&&55&.$555$;&8558$85555555555555555$255555555555555555555555555......855555555555b67660000070hhhh0hi99iiii70007",
"5555558.e2$2222$2$2$23.55555555555555-e.2;3...$%#'3&55555555555555555552......3&555555555558(~855-2.&558.2555e.855$=[85555555555555555$355555555555555555555555555......&55555555555677%670h0700000007}9b}}}77707i",
"555555&._@[[[:[[[[[[@'e555555555555553..........-]*2&55555555555555555e.........&55555555558|[$5558.255$.e558.35558%^85555555555555552--$55555555555555555555555553....e-555555555557*66bih070007iiiiii}b}bbbi77ii",
"55555558e8&&&&&&&&&&8385555555555555$..>=e.......$|425555555555555555e....ee....e8555555555-82e-558..852..&5e.25552e8855555555555555$4^^($55555555555555555555555$......35555555555566jb}}70077iii7i777i700i9jbb9}",
"555555558.&%%%%%%%*$.855555555555555e.'{^3........&:)255555555555555$.....*(e....$555555555558.e55&..35e..88..2558.e555555555832882$$^;)^&$$$8$3$555555555555555$........355555555556jj6i}i07iiii77i0000700i9ddd99",
"555555555$$%||||||*3$555555555555555..;,>..........4[3&5555555555555e...38#[83....&55555555555e.e5&...$...$e..258..$555555558$|^[^@;2#~|<8_<^:^#&255555555555555e.........&5555555556j6}}}70iii777077707iiii9j9d9}",
"5555555555..........5555555555555558..38......$....$:42555555555555&....%,11,]....&555555555552..3&...........88...5555555553<#)8&4:]8<:&%^%-$-|^285555555555555..........8555555555jb9ddd}}iii77777iiiiiii7i9999}",
"5555555555.........e555555555555555$..........>e....>:e&555555555555e...8'@^>&....&555555555558...e...........e...255555555&_:2....$@|&&*[&....e[485555555555555..........8555555555i}dd99d9}iii777ii777i777ijj9}i",
"5555555555.........e55555555555555&..........3(e....2^'$555555555555e.....(|e....e&555555555555...................$555555558=~......&!-8:/......||$55555555555553.........5555555555079d99dd9iii777i7777iiii}9jd9i",
"5555555555..........555555555555552..........3_......(#e5555555555552.....$$.....355555555555558..................5555555558>[e......~*>[3......#($5555555555555&........855555555550}9d99ddd999i77077777iiii9499i",
"5555555555..........5555555555555&...........e.......-!3555555555555&e..........e&55555555555555.................$555555555&8!)......*]*|......8!)855555555555552........3&55555555599dd99d99ij9}i707i7777i77j6699",
"5555555558$>;;;;;;>385555555555553.'>......e8$.......3^-855555555555553eeeeeeee3&5555555555555558e..e8-_//)83...$555555555552%:-....3%]*|3....8<]355555555555553..........e&55555555ddddd9dd9d6b}i7077777777i966j9",
"55555555&e_[[:[::[@&e&55555555555e.]_....e8553........~4$5555555555555$'|(%((|4$555555555555555553$4[!+++++,^|-e&5555555555553(^;)4<:^*'^:[*->[]35555555555555$............355555555d99db9dddj76iiii7777777}99j9jb",
"5555555&3e3333333333e355555555555e.2....25558.........*]3555555555555523&--&&&2355555555555555555$(^]*>)))/;(::&-55555555555583>:^@*_8e.8)4~^:=3$555555555555&..............&5555555ddd99dddd9i6jiiiiiiiiiiii}9dbb",
"5555555e/<[[[[[[[[[[]835555555555$.....e-55$.........._@355555555555558-:,,,,^/8555555555555555558$/*]@[[[[~(>&255555555555555-$3$e$&/>>/-8322$&5555555555555$..............355555559d9}9dd9d9b6b9b}i7}}}}}}ii}99j",
"555555&.8------------3.5555555555582...85-3...........&:35555555555555&e&;;;>-e855555555555555555&>^[(*444*%#!]85555555555555555e;#:^^^^^^^<=38555555555555552...............55555559}}9999i}99bj67777iii}}i7i}999",
"5555558................5555555555555&$&553............&^2555555555555558e.....8555555555555555555-$->(##]##|4)8$5555555555555555$(;-&&&&&&&;(&&555555555555553..............e5555555}}}b}}}ii}ij7777777i77iiiii}99",
"555553$;#~~~~#~#~~~~~#>225555555555555552.............&^25555555$222$38&3....e&82$232255555555555-8:+^<]]]#[,,;85555555555555555e>][!,,,,!:~;3&55555555555555e...............5555555i66677}}}i}b77777777i7777iii}}",
"55555e8%%%%%%%%%%%%%%%*e.555555555555555e.............-^3555555e......................e-55555555552-$.......e&8855555555555555558|%)$$23$$-4]-&555555555555552..............e5555555i7i}999}i}}i777070007i777ii}i}",
"55555....................55555555555555&..............>:35555552......................355555555555$...........e&55555555555555553............e55555555555555582222222222$22285555555707}99}77b999}i7000077i77iii}}",
"555558$$$$$$$$$$$$$$$$$$8555555555555555..............->355555553.e33.....8&e....33e.e-555555555555&$$33333228-55555555555555555&8&85555555&8&55555555555555555555555555555555555555i7i}}}}i}b9}}ii0007077ii}}b}}}",
"5555555555555555555555555555555555555555$22222222233322285555555&85555&&&&55-&8&5555&&5555555555555555555555555555555555555555555555555555555555555555555555555555555555555555555555ii}i}}}i999}i7770007007i}}b}}i",
"555555555555555555555555555555555555555555555555555555555555555555555555555555555555555555555555555555555555555555555555555555555555555555555555555555555555555555555555555555555555i77}6b}i}}i}ii700000077ii}b}}}",
"555555555555555555555555555555555555555555555555555555555555555555555555555555555555555555555555555555555555555555555555555555555555555555555555555555555555555555555555555555555555i}i9}bb}}i777770000007777ib}}}"};
