/* XPM */
static char * forwardn_xpm[] = {
"24 16 2 1",
" 	c None",
".	c #000000",
"                        ",
"                        ",
"   .     .       ...    ",
"   ..    ..      ...    ",
"   ...   ...     ...    ",
"   ....  ....    ...    ",
"   ..... .....   ...    ",
"   ............  ...    ",
"   ............  ...    ",
"   ..... .....   ...    ",
"   ....  ....    ...    ",
"   ...   ...     ...    ",
"   ..    ..      ...    ",
"   .     .       ...    ",
"                        ",
"                        "};
