/* XPM */
static char * goc_discardall_xpm[] = {
"32 20 75 1",
" 	c None",
".	c #000000",
"+	c #E16C10",
"@	c #E37312",
"#	c #E47812",
"$	c #E57C13",
"%	c #E68014",
"&	c #E68214",
"*	c #E0650F",
"=	c #DE5D0E",
"-	c #DC540D",
";	c #E06610",
">	c #E26F11",
",	c #E37612",
"'	c #E57D13",
")	c #E68314",
"!	c #E78815",
"~	c #E88B15",
"{	c #E98E16",
"]	c #DA4A0B",
"^	c #DB510C",
"/	c #DD5B0E",
"(	c #E47712",
"_	c #E78715",
":	c #EA9317",
"<	c #EB9717",
"[	c #EB9A18",
"}	c #EC9B18",
"|	c #DD570D",
"1	c #DF620F",
"2	c #E88915",
"3	c #E99116",
"4	c #EB9817",
"5	c #EC9E18",
"6	c #EDA319",
"7	c #EEA61A",
"8	c #EEA71A",
"9	c #DA4D0B",
"0	c #E06810",
"a	c #EDA219",
"b	c #EFA91A",
"c	c #F0AE1B",
"d	c #F1B21C",
"e	c #F1B31C",
"f	c #DB520C",
"g	c #D9460A",
"h	c #DC560D",
"i	c #DF610F",
"j	c #E16D11",
"k	c #EFAB1B",
"l	c #F2B91D",
"m	c #F3BD1D",
"n	c #F4BF1E",
"o	c #DD590D",
"p	c #E27111",
"q	c #F3BC1D",
"r	c #F5C41E",
"s	c #F6C91F",
"t	c #F6CB20",
"u	c #DA4E0C",
"v	c #DE5C0E",
"w	c #E37412",
"x	c #F7CD20",
"y	c #F8D421",
"z	c #F9D722",
"A	c #DB500C",
"B	c #E16910",
"C	c #FBDE23",
"D	c #FCE324",
"E	c #DE5E0E",
"F	c #E16A10",
"G	c #FFEF25",
"H	c #E57B13",
"I	c #F1B51C",
"J	c #F8D221",
"         ...............        ",
"     ....+@#$%&&&%$#@+*=...     ",
"    .-=;>,')!~{{{~!)',>;=-].    ",
"   .^/*>(%_{:<[}[<:{_%(>*/^.    ",
"   .|1+,%2345678765432%,+1|9.   ",
"   .=0@'_3[abcdedcba[3_'@0=fg.  ",
"  .hij#){4akelmnmleka4{)#jih].  ",
"  .o*p$!:5beqrstsrqeb5:!$p*ou.  ",
"  .v0w%~<6clrxyzyxrlc6<~%w0vA.  ",
" .^=B,&{[7dmsyCDCysmd7[{&,B=^.  ",
" .fEF,&{}8entzDGDztne8}{&,FEf.  ",
"  ..B,&{[7dH4IJGJI4Hd7[{&,B=.   ",
"    ...~<6.H4IJGJI4H.6<~%...    ",
"       ....H4IJGJI4H.....       ",
"          .H4IJGJI4H.           ",
"          .H4IJGJI4H.           ",
"          .H4IJGJI4H.           ",
"          .H4IJGJI4H.           ",
"          .H4IJGJI4H.           ",
"                                "};
