/* XPM */
static char * goc_edit_xpm[] = {
"32 20 12 1",
" 	c None",
".	c #3F3F3F",
"+	c #000000",
"@	c #F2D604",
"#	c #FFF3A5",
"$	c #FFE4A8",
"%	c #060606",
"&	c #FBE1A6",
"*	c #1C1C1C",
"=	c #8B7C5D",
"-	c #1F1F1F",
";	c #050505",
"                                ",
"                                ",
"       ...                      ",
"      ....               +      ",
"     ...                +@+     ",
"     ..                +@#@+    ",
"     .. ...           +@#@#@+   ",
"     ......          +@#@#@+    ",
"     ......         +@#@#@+     ",
"     ......        +@#@#@+      ",
"     ...          +@#@#@+       ",
"     ..          +@#@#@+        ",
"    ...         +@#@#@+         ",
"     .         +@#@#@+          ",
"    ...       +$+@#@+           ",
"     ..       %&$+@+            ",
"     ....   ..*=$$+             ",
"      ........-;++              ",
"        .....                   ",
"                                "};
