/* XPM */
static char * goc_open_xpm[] = {
"32 20 4 1",
" 	c None",
".	c #000000",
"+	c #9C917B",
"@	c #E2E2E2",
"                                ",
"                                ",
"                                ",
"                  ..            ",
"               ...+...          ",
"        ..  ...+...@@@...       ",
"       .++..+...@@@@..++.       ",
"       .+++..@@@@@..++++.       ",
"        .+.@@@@@..++++++.       ",
"        .+.@@@..++++++++.       ",
"         ..@@.++++++++++.       ",
"         .+.@.++++++++++.       ",
"          ..@.++++++++++.       ",
"          .+..++++++++..        ",
"           .+.++++++..          ",
"           .+.+++++.            ",
"            ..+++..             ",
"            ..+..               ",
"             ..                 ",
"                                "};
