/* XPM */
static char * goc_display_xpm[] = {
"32 20 4 1",
" 	c None",
".	c #1525D3",
"+	c #FFFFFF",
"@	c #000000",
"      ....................      ",
"      .+++@@@+++@@@+++@@@.      ",
"      .+++@@@+++@@@+++@@@.      ",
"      .+++@@@+++@@@+++@@@.      ",
"      .@@@+++@@@+++@@@+++.      ",
"      .@@@+++@@@+++@@@+++.      ",
"      .@@@+++@@@+++@@@+++.      ",
"      .+++@@@+++@@@+++@@@.      ",
"      .+++@@@+++@@@+++@@@.      ",
"      .+++@@@+++@@@+++@@@.      ",
"      .@@@+++@@@+++@@@+++.      ",
"      .@@@+++@@@+++@@@+++.      ",
"      .@@@+++@@@+++@@@+++.      ",
"      .+++@@@+++@@@+++@@@.      ",
"      .+++@@@+++@@@+++@@@.      ",
"      .+++@@@+++@@@+++@@@.      ",
"      .@@@+++@@@+++@@@+++.      ",
"      .@@@+++@@@+++@@@+++.      ",
"      .@@@+++@@@+++@@@+++.      ",
"      ....................      "};
