/* XPM */
static char * goc_refresh_xpm[] = {
"32 20 118 2",
"  	c None",
". 	c #8FA5F0",
"+ 	c #8DA3EE",
"@ 	c #8AA1ED",
"# 	c #87A0EB",
"$ 	c #849EEA",
"% 	c #819DE9",
"& 	c #95A8F3",
"* 	c #93A7F1",
"= 	c #90A5F0",
"- 	c #8DA3EF",
"; 	c #8AA2ED",
"> 	c #809CE8",
", 	c #7D9AE7",
"' 	c #7B99E6",
") 	c #99AAF4",
"! 	c #97A9F3",
"~ 	c #95A8F2",
"{ 	c #92A6F1",
"] 	c #8EA4EF",
"^ 	c #8BA2ED",
"/ 	c #839EEA",
"( 	c #7F9CE8",
"_ 	c #7C9AE6",
": 	c #7998E5",
"< 	c #7797E4",
"[ 	c #9CABF6",
"} 	c #94A7F2",
"| 	c #829DE9",
"1 	c #7E9BE7",
"2 	c #7A99E5",
"3 	c #7495E2",
"4 	c #7294E1",
"5 	c #9CACF6",
"6 	c #7897E4",
"7 	c #7093E0",
"8 	c #6E92DF",
"9 	c #0F5DB1",
"0 	c #7194E1",
"a 	c #6F92E0",
"b 	c #6D91DF",
"c 	c #6B90DE",
"d 	c #135FB3",
"e 	c #125EB3",
"f 	c #115EB2",
"g 	c #698FDD",
"h 	c #688FDD",
"i 	c #688EDC",
"j 	c #1660B4",
"k 	c #1560B4",
"l 	c #145FB4",
"m 	c #678EDC",
"n 	c #668DDB",
"o 	c #658DDB",
"p 	c #1862B5",
"q 	c #628BD9",
"r 	c #1A63B7",
"s 	c #1B63B7",
"t 	c #1C64B7",
"u 	c #5D88D7",
"v 	c #5E89D8",
"w 	c #5F89D8",
"x 	c #1D64B8",
"y 	c #1E65B8",
"z 	c #1E65B9",
"A 	c #1F66B9",
"B 	c #5986D5",
"C 	c #5A87D6",
"D 	c #5B87D6",
"E 	c #5C88D7",
"F 	c #2066BA",
"G 	c #2167BA",
"H 	c #2368BB",
"I 	c #2569BC",
"J 	c #5383D2",
"K 	c #5584D3",
"L 	c #5785D4",
"M 	c #5886D5",
"N 	c #2468BB",
"O 	c #2669BC",
"P 	c #286ABD",
"Q 	c #2A6CBE",
"R 	c #4C7FCF",
"S 	c #4F81D0",
"T 	c #5282D2",
"U 	c #5483D3",
"V 	c #5684D4",
"W 	c #266ABD",
"X 	c #286BBD",
"Y 	c #2D6DC0",
"Z 	c #306FC1",
"` 	c #3471C3",
" .	c #4279CA",
"..	c #467BCC",
"+.	c #4A7DCE",
"@.	c #4D7FCF",
"#.	c #2F6FC1",
"$.	c #3270C2",
"%.	c #3572C4",
"&.	c #3974C6",
"*.	c #3D76C7",
"=.	c #4178C9",
"-.	c #447BCB",
";.	c #487CCD",
">.	c #4B7ECE",
",.	c #2E6EC0",
"'.	c #316FC2",
").	c #3371C3",
"!.	c #3673C4",
"~.	c #3A74C6",
"{.	c #4078C9",
"].	c #437ACB",
"^.	c #467CCC",
"/.	c #497DCD",
"(.	c #3472C3",
"_.	c #3773C5",
":.	c #3A75C6",
"<.	c #437ACA",
"                                                                ",
"                          . + @ # $ %                           ",
"                      & * = - ; # $ > , '                       ",
"                    ) ! ~ { ] ^ # / ( _ : <                     ",
"                    [ ) ! } =     | 1 2 < 3 4                   ",
"                      5 )             6 3 4 7 8                 ",
"                9                       0 a b c                 ",
"              d e f                       c g h i               ",
"            j k k k l d                   m n o o               ",
"          p p p p p p p p                   q q q               ",
"              r s s t                     u v w w               ",
"              x y z A                     B C D E               ",
"                F G H I                 J K L M                 ",
"                H N O P Q             R S T U V                 ",
"                  W X Q Y Z `      ...+.@.S T                   ",
"                    Q Y #.$.%.&.*.=.-.;.>.@.                    ",
"                      ,.'.).!.~.*.{.].^./.                      ",
"                          (._.:.*.{.<.                          ",
"                                                                ",
"                                                                "};
