/* XPM */
static char * hammer_xpm[] = {
"16 16 7 1",
" 	c None",
".	c #000000",
"+	c #8E8E8E",
"@	c #565656",
"#	c #3A3A3A",
"$	c #D8A2A2",
"%	c #910808",
"                ",
"    ........... ",
"   .++++++++++. ",
"  .+@@@@@@@@@@. ",
" .+@.##@@..@@@. ",
" .+. .#@.  .... ",
" ..   ...       ",
" .   .$%%.      ",
" .   .$%%.      ",
"     .$%%.      ",
"     .$%%.      ",
"     .$%%.      ",
"     .$%%.      ",
"     .$%%.      ",
"     .$%%.      ",
"     .....      "};
