/* XPM */
static char * icon_eboard_xpm[] = {
"48 48 83 1",
" 	c None",
".	c #020202",
"+	c #6A4E3A",
"@	c #684A36",
"#	c #5F4333",
"$	c #503A2A",
"%	c #B2966B",
"&	c #AE926A",
"*	c #AA8E66",
"=	c #A48A63",
"-	c #A28662",
";	c #9E865F",
">	c #9A825E",
",	c #947E5A",
"'	c #8E7A56",
")	c #8A7653",
"!	c #877252",
"~	c #846E50",
"{	c #7E6A4D",
"]	c #6E4E3A",
"^	c #6E523A",
"/	c #624A36",
"(	c #4E3E2D",
"_	c #AE966A",
":	c #AA9268",
"<	c #A68E66",
"[	c #927A5A",
"}	c #796649",
"|	c #72523C",
"1	c #B69A6E",
"2	c #8E7656",
"3	c #756246",
"4	c #624E3A",
"5	c #77563E",
"6	c #715E45",
"7	c #6A5A42",
"8	c #6E5A42",
"9	c #594A36",
"0	c #5E4E39",
"a	c #413223",
"b	c #392F22",
"c	c #362A1E",
"d	c #32261A",
"e	c #2E2219",
"f	c #BB9D71",
"g	c #BFA273",
"h	c #C3A676",
"i	c #594330",
"j	c #553E2E",
"k	c #4A3627",
"l	c #463226",
"m	c #422E22",
"n	c #3E2E22",
"o	c #3B2A1F",
"p	c #4E362A",
"q	c #36261E",
"r	c #463626",
"s	c #524232",
"t	c #32221A",
"u	c #2A1E16",
"v	c #67563E",
"w	c #322A1E",
"x	c #62523A",
"y	c #2E261B",
"z	c #FEFEFE",
"A	c #FFFFFF",
"B	c #8D8D8D",
"C	c #000000",
"D	c #A9A9A9",
"E	c #E3E3E3",
"F	c #555555",
"G	c #545454",
"H	c #AAAAAA",
"I	c #717171",
"J	c #1C1C1C",
"K	c #383838",
"L	c #727272",
"M	c #393939",
"N	c #1D1D1D",
"O	c #8E8E8E",
"P	c #C7C7C7",
"Q	c #E2E2E2",
"R	c #C6C6C6",
".............++++++@@@#$%&*=-;>,')!~{...........",
"............]]]^]]]+@@/(%_:<=;>,[)!~{}..........",
"............^]|^|^^++@@(1%&*=;>,[2!~{}3.........",
"...........]|||||||^++4(1%&*=->,[2!~{}3.........",
"..........]^||55|||^]+@....:<-;>[2)~{}36........",
".........+]|||5555|^]........=;,,')!{}}6........",
".........+^||55555||..........>>['!!~}}6........",
"........@+]||55555|...........;>,')!{}367.......",
"........@+]^|||55|.............>,2!~{}368.......",
".......@4+]^^|||5|.............,[2!~{}367.......",
"......./@@+]^^|||].............,[2!~{}367.......",
".......#/@@+]]]^]..............,')!~{}367.......",
".......99/0004444..............aaabbccdde.......",
"......&%1ffgghghhhggff19##ijj$$$kklamnnoc.......",
"......:_%11fgggggggf11%9iijjj$$pkklamnooq.......",
"......*:&%%11fffff11%%&iiijj$$$kkllamoooq.......",
"......=<:&_%%11111%%&&*iijj$$$pkrlamnnocq.......",
"......-=<*:&&&%&&_&&:*<sjj$$$pklllmmoooqq.......",
"......;;==<**:::::**<==sjj$$pkkllmmnoocq........",
"......>>;-===<=<................................",
"......,>>;;;--==................................",
"......[[,>>>>>;;................................",
"......2'[[,,,>>,................................",
".......)2''[[[,,,.............mn................",
".......!!))2222'2............nnnoocqd...........",
".......~~!!!!!))))..........nnooocqdtee.........",
"........{{~~~~!~~~~........nnoooqqdtte..........",
"........}}{{~{{~{{{{.....nnooooqqdttee..........",
".........}}}}}}}}}}}}}3bnnooocqqddeee...........",
".........33333}3}333336booocqqqtteee............",
"..........6666666666678bocqqqddteeu.............",
"...........77788787777vcqqqddteeuu..............",
"............vvvvvvvvvvvwqdtteeuuu...............",
".............xxvxxxxxx0ytteeeeuu................",
"...............00000009yeeeeuu..................",
"..................99999eeuu.....................",
"................................................",
"zzzzzzzzzzzzzzzzAAAAAAAAAAAAAAAAAAAAAAAAAAAAAAAA",
"zzzzzzzzzzzBCDzzAAAAAAAAAAAAAAAAAAAAAAAAAECFAAAA",
"zzzzzzzzzzzGCzzzAAAAAAAAAAAAAAAAAAAAAAAAAHCHAAAA",
"zzzzzICCIzzJCKCKEAELCCMEAALCCNHAFCOCOEMCMFCPAAAA",
"zzzzGCBGCBzCCBGCLAFCOOCMALCOHNCAFCMHENNHFCCAAAAA",
"zzzQCGzzCGRCIzzCFECFAAFCAAAPHMCACNEAOCHAECMAAAAA",
"zzzDCCCCCGDCDzQCFHCHAAMCALCNFCFACFAAFCAAPCFAAAAA",
"zzzRCBzzRzGCBzBCHHCOAECFHCOAPCLHCHAAFCEALCHAAAAA",
"zzzzJCGJJQKCCGCKAANCFNNEPCNFCCHOCPAAOCNMCCHAAAAA",
"zzzzQIGIQzGBRGIzAAELFLEAAHFLHFPOFAAAAOFOOFAAAAAA",
"zzzzzzzzzzzzzzzzAAAAAAAAAAAAAAAAAAAAAAAAAAAAAAAA"};
