/* XPM */
static char * k18_xpm[] = {
"18 18 42 1",
" 	c None",
".	c #080808",
"+	c #000000",
"@	c #777777",
"#	c #A6A6A6",
"$	c #323232",
"%	c #1B1B1B",
"&	c #F8F8F8",
"*	c #DCDCDC",
"=	c #2E2E2E",
"-	c #8E8E8E",
";	c #AAAAAA",
">	c #8A8A8A",
",	c #313131",
"'	c #393939",
")	c #FFFFFF",
"!	c #404040",
"~	c #959595",
"{	c #1C1C1C",
"]	c #EAEAEA",
"^	c #474747",
"/	c #E3E3E3",
"(	c #B8B8B8",
"_	c #6A6A6A",
":	c #CDCDCD",
"<	c #787878",
"[	c #1A1A1A",
"}	c #929292",
"|	c #A3A3A3",
"1	c #6C6C6C",
"2	c #BFBFBF",
"3	c #878787",
"4	c #808080",
"5	c #717171",
"6	c #C6C6C6",
"7	c #D4D4D4",
"8	c #F1F1F1",
"9	c #5F5F5F",
"0	c #101010",
"a	c #090909",
"b	c #242424",
"c	c #484848",
"                  ",
"        .+        ",
"       ++++       ",
"        ++        ",
"       @++#       ",
"   +$+ %&*+ +$#   ",
" #=-;>,'))+!~;+{  ",
" {])))&^/(_)))):+ ",
" +)))))]<_&)))))+ ",
" +))))))<~)))))&% ",
" [})))))|:)))))1+ ",
"  +>23445<44-61$  ",
"   +|&)]778)84[   ",
"   +<44~;;-44+    ",
"   $~;444444(+    ",
"   90-8))))]_a    ",
"     .+b!![+c     ",
"                  "};
