/* XPM */
static char * movelist_xpm[] = {
"24 16 10 1",
" 	c None",
".	c #000000",
"+	c #FFFFFF",
"@	c #141414",
"#	c #606060",
"$	c #F4F4F4",
"%	c #232323",
"&	c #E2E2E2",
"*	c #5B5B5B",
"=	c #D6D6D6",
"                        ",
"  ...................   ",
"  .+++++++++++++++++.   ",
"  .+@++@@@@++@@@@@++.   ",
"  .+++++++++++++++++.   ",
"  .+#++#####+#####++.   ",
"  .+++++++++++++++++.   ",
"  .+@++@@@@++@@@@+++.   ",
"  .$$$$$$$$$$$$$$$$$.   ",
"  .+@++@@@@++@@@@+++.   ",
"  .$$$$$$$$$$$$$$$$$.   ",
"  .+@++@@@@++@@@@+++.   ",
"  .$$$$$$$$$$$$$$$$$.   ",
"  %&#&&###&&&####&&&%   ",
"  *=================*   ",
"                        "};
