/* XPM */
static char * n18_xpm[] = {
"18 18 51 1",
" 	c None",
".	c #777777",
"+	c #1A1A1A",
"@	c #000000",
"#	c #383838",
"$	c #111111",
"%	c #585858",
"&	c #A6A6A6",
"*	c #484848",
"=	c #9C9C9C",
"-	c #626262",
";	c #696969",
">	c #C6C6C6",
",	c #3B3B3B",
"'	c #2E2E2E",
")	c #353535",
"!	c #FFFFFF",
"~	c #F8F8F8",
"{	c #EAEAEA",
"]	c #B8B8B8",
"^	c #1D1D1D",
"/	c #AAAAAA",
"(	c #636363",
"_	c #E3E3E3",
":	c #D4D4D4",
"<	c #121212",
"[	c #A3A3A3",
"}	c #959595",
"|	c #555555",
"1	c #808080",
"2	c #1E1E1E",
"3	c #8E8E8E",
"4	c #CDCDCD",
"5	c #717171",
"6	c #787878",
"7	c #878787",
"8	c #BFBFBF",
"9	c #BDBDBD",
"0	c #6B6B6B",
"a	c #DCDCDC",
"b	c #B1B1B1",
"c	c #2A2A2A",
"d	c #5F5F5F",
"e	c #1C1C1C",
"f	c #1B1B1B",
"g	c #999999",
"h	c #4E4E4E",
"i	c #929292",
"j	c #686868",
"k	c #404040",
"l	c #202020",
"                  ",
"    ..  +         ",
"    @#@$%&        ",
"    *=-;>,'@      ",
"    )>>!~{!]^.    ",
"   +/(_!!!!!:<&   ",
"   @[/!!!:!!!}@   ",
"   |!!!!!1!!!~23  ",
"  $4!!!!~5!!!!6@  ",
" @7!!!!>@@!!!!8@  ",
" @}>!~@@90!!!!~@  ",
" @a_b@.9<:!!!!!cd ",
" &ef@.9@g!!!!!!h@ ",
"   &.9+i!!!!!!!(@ ",
"     &j!!!!!!!!1@ ",
"     @a!!!!!!!!1@ ",
"     @kkkkkkkkkl@ ",
"                  "};
