/* XPM */
static char * q18_xpm[] = {
"18 18 56 1",
" 	c None",
".	c #777777",
"+	c #8E8E8E",
"@	c #A6A6A6",
"#	c #454545",
"$	c #3A3A3A",
"%	c #6D6D6D",
"&	c #585858",
"*	c #7C7C7C",
"=	c #606060",
"-	c #080808",
";	c #373737",
">	c #000000",
",	c #494949",
"'	c #3D3D3D",
")	c #4C4C4C",
"!	c #F8F8F8",
"~	c #BDBDBD",
"{	c #323232",
"]	c #444444",
"^	c #6B6B6B",
"/	c #474747",
"(	c #484848",
"_	c #404040",
":	c #5F5F5F",
"<	c #1C1C1C",
"[	c #B1B1B1",
"}	c #707070",
"|	c #1B1B1B",
"1	c #A3A3A3",
"2	c #181818",
"3	c #6A6A6A",
"4	c #D4D4D4",
"5	c #C6C6C6",
"6	c #9C9C9C",
"7	c #AAAAAA",
"8	c #DCDCDC",
"9	c #929292",
"0	c #CDCDCD",
"a	c #B8B8B8",
"b	c #E3E3E3",
"c	c #EAEAEA",
"d	c #202020",
"e	c #2E2E2E",
"f	c #242424",
"g	c #787878",
"h	c #878787",
"i	c #808080",
"j	c #717171",
"k	c #555555",
"l	c #FFFFFF",
"m	c #959595",
"n	c #2F2F2F",
"o	c #666666",
"p	c #616161",
"q	c #1A1A1A",
"                  ",
"    .+ @#$  .+    ",
"   .%& .*= .%&    ",
"-;>@,'  >> @); ->>",
">!>~{>  ;>  >  ;!>",
">>>~>]@ ^/ (_: >>>",
" ><~>[>++} |1{@2( ",
" >3>>4/>56:^7{<>  ",
"  >^>89>!0>a[>+>  ",
"  >b-c0{[5<40d!e  ",
"  fg/h6i5[i1jkg>  ",
"  >>lb077774c!>@  ",
"   >>6[44447m>>   ",
"   @>+iiiiiim>    ",
"   ->miiiiiim>>   ",
"   n68llllll4+2   ",
"   {>f_ooop_q>:   ",
"                  "};
