/* XPM */
static char * qb1_xpm[] = {
"18 16 3 1",
" 	c None",
".	c #FF5D00",
"+	c #000000",
"                  ",
"                  ",
"                  ",
"              ... ",
"         .......++",
"    ...........++ ",
" ..............+  ",
"  ............++  ",
"   ..........++   ",
"    .........+    ",
"     .......++    ",
"      .....++     ",
"       ....+      ",
"        ..++      ",
"         ++       ",
"                  "};
