/* XPM */
static char * qb2_xpm[] = {
"18 16 4 1",
" 	c None",
".	c #C7C7C7",
"+	c #000000",
"@	c #FFF200",
"     .++++++.     ",
"    +++@@@@+++    ",
"   ++@@@@@@@@++   ",
"  ++@@@@@@@@@@++  ",
" .+@@@+@@@@+@@@+. ",
" ++@@+++@@+++@@++ ",
" +@@@+++@@+++@@@+ ",
" +@@@@+@@@@+@@@@+ ",
" +@@@@@@@@@@@@@@+ ",
" +@@+@@@@@@@@+@@+ ",
" ++@@+@@@@@@+@@++ ",
" .+@@@++++++@@@+. ",
"  ++@@@@@@@@@@++  ",
"   ++@@@@@@@@++   ",
"    +++@@@@+++    ",
"     .++++++.     "};
