/* XPM */
static char * qb6_xpm[] = {
"18 16 12 1",
" 	c None",
".	c #000000",
"+	c #1700FE",
"@	c #1D01EC",
"#	c #1703E0",
"$	c #1305D4",
"%	c #1306C7",
"&	c #1008BB",
"*	c #1009AE",
"=	c #0E0BA2",
"-	c #0D0D94",
";	c #0E1389",
"                  ",
"                  ",
"  ...........     ",
"  .+++++@#$%&.    ",
"   .++++@#$%&*.   ",
"    .+++@#$%&*=.  ",
"     .++@#$%&*=-. ",
"      .+@#$%&*=-;.",
"     .++@#$%&*=-. ",
"    .+++@#$%&*=.  ",
"   .++++@#$%&*.   ",
"  .+++++@#$%&.    ",
"  ...........     ",
"                  ",
"                  ",
"                  "};
