/* XPM */
static char * qbr_xpm[] = {
"8 16 2 1",
" 	c None",
".	c #000000",
"        ",
"        ",
" .      ",
" ..     ",
" ...    ",
" ....   ",
" .....  ",
" ...... ",
" ...... ",
" .....  ",
" ....   ",
" ...    ",
" ..     ",
" .      ",
"        ",
"        "};
