/* XPM */
static char * r18_xpm[] = {
"18 18 25 1",
" 	c None",
".	c #1A1A1A",
"+	c #000000",
"@	c #5F5F5F",
"#	c #8E8E8E",
"$	c #A6A6A6",
"%	c #323232",
"&	c #353535",
"*	c #D4D4D4",
"=	c #6A6A6A",
"-	c #B1B1B1",
";	c #404040",
">	c #FFFFFF",
",	c #DCDCDC",
"'	c #AAAAAA",
")	c #F8F8F8",
"!	c #EAEAEA",
"~	c #E3E3E3",
"{	c #808080",
"]	c #2C2C2C",
"^	c #555555",
"/	c #080808",
"(	c #101010",
"_	c #787878",
":	c #424242",
"                  ",
"                  ",
"   .++ @++#$++%   ",
"   &*=%+-#++#*+   ",
"   ;>,'')!''~>+   ",
"   +;{{{{{{{{]+   ",
"    +={{{{{{^/    ",
"    %'>>>>>>{+    ",
"    %'>>>>>>{+    ",
"    %'>>>>>>{+    ",
"    %'>>>>>>{+    ",
"    %'>>>>>>{+    ",
"    (_{{{{{{=+    ",
"   +^{{{{{{{{:@   ",
"   +*>>>>>>>>'%   ",
"  +{{{{{{{{{{{=+  ",
"  +;;;;;;;;;;;&/  ",
"                  "};
