/* XPM */
static char * sealoff_xpm[] = {
"32 16 70 1",
" 	c None",
".	c #161616",
"+	c #96AEBE",
"@	c #6A76AA",
"#	c #66666A",
"$	c #62626A",
"%	c #DEDEEE",
"&	c #4A4A46",
"*	c #869AB6",
"=	c #AEAEBA",
"-	c #363632",
";	c #BEBADA",
">	c #2E223E",
",	c #C6C6DE",
"'	c #7686B2",
")	c #EEEEF6",
"!	c #727AB2",
"~	c #CECAE2",
"{	c #6E6E7E",
"]	c #2A2E2A",
"^	c #8EA6B6",
"/	c #D6D6E6",
"(	c #7A7A86",
"_	c #767EB2",
":	c #5A66A2",
"<	c #9292A6",
"[	c #8296AE",
"}	c #7A7696",
"|	c #F6F6FA",
"1	c #56565A",
"2	c #726E86",
"3	c #62628E",
"4	c #E6E6F2",
"5	c #3A3E36",
"6	c #8282B2",
"7	c #868696",
"8	c #7E92AE",
"9	c #BEBEDA",
"0	c #B6B6BE",
"a	c #5E6AA6",
"b	c #869EB2",
"c	c #52525A",
"d	c #FEFEFE",
"e	c #CECEE2",
"f	c #C6C2DE",
"g	c #B6B2BE",
"h	c #DAD6EA",
"i	c #F2F2FA",
"j	c #DEDAEA",
"k	c #C2C2DE",
"l	c #B2B2BA",
"m	c #3A3A36",
"n	c #D2CEE6",
"o	c #42423E",
"p	c #E2E2EE",
"q	c #626EA6",
"r	c #D2D2E6",
"s	c #4E4E4E",
"t	c #CAC6DE",
"u	c #C2BEDE",
"v	c #92A6BA",
"w	c #8A9EB2",
"x	c #4A4A4E",
"y	c #6E7EAE",
"z	c #565A52",
"A	c #2E2E2A",
"B	c #EAE6F2",
"C	c #3E3E3A",
"D	c #CAC6E2",
"E	c #3E3E3E",
"           =l0        >>>>      ",
"            $1c$7      >>       ",
"          (zC--]E<   >>>>>>     ",
"          m-&2{&Ax  >>3>63>>    ",
"          Am   }oA>>>|i>6%/>>>  ",
"=         Cm    &]>3|d|>_%je3>  ",
"   ..........    >>)i|i>6jje,>> ",
"  ._:::@'[^v*.   >34)))>6%re,3> ",
"  ._aa:@'*v+*.   >%p444>6/e~k9> ",
"  ._aaa@'[v+*.   >3j%%j6>6e,93> ",
"  ._:a:@'*^+*.   >>r///r6>6k;>> ",
"= ._a:a@'[v+*.    >3ernnD6k;3>  ",
"l ._aaa@'[v+*.    >>>,,tku;>>>  ",
" =._aaa@'*^+*.  0   >>39;3>>    ",
"  .!:::@!8b^[. l     >>>>>>     ",
"   .......... g                 "};
