/* XPM */
static char * sealon_xpm[] = {
"32 16 76 1",
" 	c None",
".	c #161616",
"+	c #566202",
"@	c #969256",
"#	c #FEB20A",
"$	c #FEBA2A",
"%	c #FEFAC2",
"&	c #FEF69D",
"*	c #EED246",
"=	c #4E4A52",
"-	c #E68256",
";	c #E67A4A",
">	c #C2B64E",
",	c #C6A626",
"'	c #EE8A42",
")	c #FEF296",
"!	c #373647",
"~	c #BEB682",
"{	c #EE924E",
"]	c #2E2E3B",
"^	c #CECA8E",
"/	c #76725A",
"(	c #EADA3A",
"_	c #FEFEF0",
":	c #FE9E2A",
"<	c #CEC24E",
"[	c #C6C2AE",
"}	c #272633",
"|	c #E6DA4E",
"1	c #FEAE02",
"2	c #FEFADB",
"3	c #FEF6B5",
"4	c #D6CE7A",
"5	c #565246",
"6	c #E2D65E",
"7	c #CAC69E",
"8	c #EA8A62",
"9	c #AAA672",
"0	c #46464A",
"a	c #EE8266",
"b	c #FEA60E",
"c	c #C6BE76",
"d	c #DED262",
"e	c #CECA92",
"f	c #FE9A1E",
"g	c #FEFACA",
"h	c #FEBA22",
"i	c #625E50",
"j	c #FEF6A4",
"k	c #DAD26A",
"l	c #3E3E42",
"m	c #A69E52",
"n	c #E6DA4A",
"o	c #D2CE86",
"p	c #C6C6AA",
"q	c #DACE76",
"r	c #FEF6BE",
"s	c #FEF6AC",
"t	c #9A966A",
"u	c #E67A5E",
"v	c #3E3E56",
"w	c #FEFEFE",
"x	c #DAD271",
"y	c #D6CE82",
"z	c #FEFEE3",
"A	c #CECA96",
"B	c #CAC6A6",
"C	c #323241",
"D	c #4A4A62",
"E	c #D2CA8E",
"F	c #CEC26A",
"G	c #FEAA16",
"H	c #EADA42",
"I	c #CECA9A",
"J	c #EEDE36",
"K	c #FEFACF",
"   [B7IAeAI7B[        ++++      ",
"  p7e~/ii/9Ee7p        ++       ",
" [I^tDC}]}lcoE7p     ++++++     ",
"[7^EC]=m@=}54EE7[   ++,+*,++    ",
"77o4}C<nn>!}FxE^B +++__+*g%+++  ",
"7E4kC]H(((v}6q4^7 +,_w_+*Kr3,+  ",
"AEq..........dqoA++2___+*K%3j++ ",
"^4.$111b:'8-;.kE7+,z222+*%r3s,+ ",
"74.$11#G:{8a-.q4^+r22z2+*%3s))+ ",
"EE.$##1G:{8a;.k47+,%2rg*+*r)j,+ ",
"7E.$1#1G:{8a-.4y7++r%rgr*+*))++ ",
"e^.$#1#G:{8a;.4^7 +,3%33s*j&,+  ",
"77.$#1#G:{8a-.EE7 +++jjjj&)+++  ",
" 7.$1#1G:{8a;.^7[   ++,)),++    ",
"  .$G11Gf'-u;.7p     ++++++     ",
"   ..........7p                 "};
