/* XPM */
static char * snd_test_xpm[] = {
"16 10 2 1",
" 	c None",
".	c #000000",
"      .         ",
"      ..        ",
"      ...       ",
"      ....      ",
"      .....     ",
"      .....     ",
"      ....      ",
"      ...       ",
"      ..        ",
"      .         "};
