/* XPM */
static char * snd_edit_xpm[] = {
"16 10 5 1",
" 	c None",
".	c #000000",
"+	c #FFEB11",
"@	c #B2A540",
"#	c #FFEBBF",
"            .   ",
"           .+.  ",
"          .+++. ",
"         .+++.  ",
"        .+++.   ",
"       .+++.    ",
"      .@@+.     ",
"      .#@.      ",
" ........       ",
"                "};
