/* XPM */
static char * spiral1_xpm[] = {
"16 16 90 1",
" 	c None",
".	c #2A2A2A",
"+	c #161616",
"@	c #000000",
"#	c #808080",
"$	c #BFBFBF",
"%	c #959595",
"&	c #3A3A3A",
"*	c #020202",
"=	c #F1F1F1",
"-	c #C4C4C4",
";	c #999999",
">	c #101010",
",	c #E5E5E5",
"'	c #1A1A1A",
")	c #535353",
"!	c #DADADA",
"~	c #828282",
"{	c #313131",
"]	c #C1C1C1",
"^	c #ACACAC",
"/	c #2D2D2D",
"(	c #040100",
"_	c #662212",
":	c #BCBCBC",
"<	c #CDCDCD",
"[	c #2C2C2C",
"}	c #A7A7A7",
"|	c #E2E2E2",
"1	c #909090",
"2	c #541C0E",
"3	c #030100",
"4	c #211A19",
"5	c #42160B",
"6	c #040404",
"7	c #6C6C6C",
"8	c #060606",
"9	c #5E5E5E",
"0	c #939393",
"a	c #1D1D1D",
"b	c #946135",
"c	c #93321A",
"d	c #4A190D",
"e	c #50281E",
"f	c #49180C",
"g	c #250C06",
"h	c #7D2A16",
"i	c #612111",
"j	c #AAAAAA",
"k	c #D6D6D6",
"l	c #4B4B4B",
"m	c #868686",
"n	c #363636",
"o	c #371309",
"p	c #463B39",
"q	c #303030",
"r	c #3D140A",
"s	c #75573D",
"t	c #C0C0C0",
"u	c #D9D9D9",
"v	c #EBEBEB",
"w	c #080808",
"x	c #020000",
"y	c #CFCFCF",
"z	c #F9F9F9",
"A	c #33302F",
"B	c #4E1A0D",
"C	c #1E1E1E",
"D	c #5F5F5F",
"E	c #4B2015",
"F	c #282828",
"G	c #DBDBDB",
"H	c #898989",
"I	c #0A0301",
"J	c #6A2412",
"K	c #737373",
"L	c #E4E4E4",
"M	c #676767",
"N	c #8A2F18",
"O	c #0D0402",
"P	c #46170C",
"Q	c #F0F0F0",
"R	c #361C15",
"S	c #903119",
"T	c #BA7A43",
"U	c #865830",
"V	c #270D07",
"W	c #0E0502",
"X	c #842D17",
"Y	c #792916",
"        .+@     ",
"        #$%&@   ",
"  @+@   *=-;>   ",
"  @,'@@@)!~@    ",
"  {]^/(_:<[@    ",
" @}]|,12345@    ",
" 67890abcde@@ @ ",
"   @fghic@jklmn@",
"   @copqrs<tuvw ",
"   @cxyzAB3C:D@ ",
"   @EFGHIccJ^q  ",
"  @@KL|MBccNO@  ",
"  @PO[DQRSTTc@  ",
"  @cTUV8Wcccc@  ",
"  @ccccXYcccc@  ",
"  @@@@@@@@@@@@  "};
