/* XPM */
static char * spiral3_xpm[] = {
"16 16 90 1",
" 	c None",
".	c #000000",
"+	c #161616",
"@	c #2A2A2A",
"#	c #3B3B3B",
"$	c #959595",
"%	c #BFBFBF",
"&	c #808080",
"*	c #101010",
"=	c #999999",
"-	c #C4C4C4",
";	c #F1F1F1",
">	c #020202",
",	c #828282",
"'	c #DADADA",
")	c #525252",
"!	c #1A1A1A",
"~	c #E4E4E4",
"{	c #662212",
"]	c #2C2C2C",
"^	c #CDCDCD",
"/	c #BCBCBC",
"(	c #040100",
"_	c #2D2D2D",
":	c #ACACAC",
"<	c #C1C1C1",
"[	c #313131",
"}	c #93321A",
"|	c #42160B",
"1	c #211A19",
"2	c #030100",
"3	c #541C0E",
"4	c #909090",
"5	c #E6E6E6",
"6	c #E2E2E2",
"7	c #A6A6A6",
"8	c #61462F",
"9	c #5E3E22",
"0	c #752714",
"a	c #1D1D1D",
"b	c #939393",
"c	c #5E5E5E",
"d	c #060606",
"e	c #6C6C6C",
"f	c #040404",
"g	c #363636",
"h	c #868686",
"i	c #4B4B4B",
"j	c #D7D7D7",
"k	c #A9A9A9",
"l	c #612111",
"m	c #7D2A16",
"n	c #250C06",
"o	c #080808",
"p	c #EBEBEB",
"q	c #D9D9D9",
"r	c #C0C0C0",
"s	c #63352A",
"t	c #3D140A",
"u	c #303030",
"v	c #4A433D",
"w	c #371309",
"x	c #5F5F5F",
"y	c #1E1E1E",
"z	c #4E1A0D",
"A	c #33302F",
"B	c #F9F9F9",
"C	c #CFCFCF",
"D	c #020000",
"E	c #6A2412",
"F	c #BA7A43",
"G	c #0A0301",
"H	c #888888",
"I	c #DBDBDB",
"J	c #282828",
"K	c #090909",
"L	c #060201",
"M	c #0D0402",
"N	c #8A2F18",
"O	c #676767",
"P	c #737373",
"Q	c #862D17",
"R	c #903119",
"S	c #361C15",
"T	c #F0F0F0",
"U	c #0E0402",
"V	c #280D07",
"W	c #6B2412",
"X	c #792916",
"Y	c #842D17",
"      .+@       ",
"    .#$%&       ",
"    *=-;>   .+. ",
"     .,').. !~. ",
"    .{]^/{(_:<[ ",
"    .}|123456<7.",
"  . ..89}0abcdef",
" .ghijk.}lmn.   ",
"  opqr^stuvw.   ",
"  .x/y(zABCD.   ",
"   u:EFFGHIJK   ",
"  .LMN}}zO6~P.  ",
"  .Q}}}RSTx]M.  ",
"  .}FF}}UdVW}.  ",
"  .}}}}}XY}}}.  ",
"  ............  "};
