/* XPM */
static char * spiral2_xpm[] = {
"16 16 67 1",
" 	c None",
".	c #000000",
"+	c #9D9D9D",
"@	c #1D1D1D",
"#	c #6E6E6E",
"$	c #C5C5C5",
"%	c #8A8A8A",
"&	c #E5E5E5",
"*	c #F1F1F1",
"=	c #5F5F5F",
"-	c #898989",
";	c #4B4B4B",
">	c #212121",
",	c #E2E2E2",
"'	c #E6E6E6",
")	c #878686",
"!	c #8A2F18",
"~	c #888686",
"{	c #E7E6E6",
"]	c #313131",
"^	c #111111",
"/	c #531C0E",
"(	c #40150B",
"_	c #946237",
":	c #714A28",
"<	c #93321A",
"[	c #591E0F",
"}	c #752A17",
"|	c #822C17",
"1	c #050101",
"2	c #462E29",
"3	c #1C0904",
"4	c #452E28",
"5	c #060201",
"6	c #020202",
"7	c #0C0402",
"8	c #8B8B8B",
"9	c #D6D6D6",
"0	c #5B5B5B",
"a	c #6D2513",
"b	c #D5D5D5",
"c	c #060606",
"d	c #919191",
"e	c #737373",
"f	c #DCDCDC",
"g	c #ABABAB",
"h	c #383838",
"i	c #5B1E10",
"j	c #444444",
"k	c #E7E7E7",
"l	c #242424",
"m	c #482F1A",
"n	c #39130A",
"o	c #232323",
"p	c #311008",
"q	c #2C2C2C",
"r	c #EAEAEA",
"s	c #40221A",
"t	c #E9E9E9",
"u	c #2E2E2E",
"v	c #100502",
"w	c #903119",
"x	c #913119",
"y	c #140D07",
"z	c #BA7A43",
"A	c #7E2B16",
"B	c #39140A",
"     ..   ..    ",
"    .+@   @+.   ",
"   .#$.   .$#.  ",
"  .%&*=...=*&-. ",
"  .;>,')!~{,>;. ",
"    .]-^/^-].   ",
"    .(_:<[}.    ",
"   .|123<345.   ",
"   67890a0b8.   ",
"  cdefghihgfedc ",
"  .j,klm<nok,j. ",
"  .pqrs<<<stq.  ",
"  .<puvwxwyup.  ",
"  .<zmA<<<AB<.  ",
"  .<<<<<<<<<<.  ",
"  ............  "};
