/* XPM */
static char * spiral0_xpm[] = {
"16 16 6 1",
" 	c None",
".	c #000000",
"+	c #EDEDED",
"@	c #A3A3A3",
"#	c #93321A",
"$	c #BA7A43",
"     ......     ",
"     .+@+@.     ",
"      .+@.      ",
"     ..@+..     ",
" .. .#.+@.#. .. ",
" .+...#..#...@. ",
" .@+@+.$#.@+@+. ",
" .+@+@.##.+@+@. ",
" .@...#..$...+. ",
" ...##.@+.##... ",
"   .##.+@.##.   ",
"  .###.@+.###.  ",
"  .##.@+@+.$#.  ",
"  .#$......##.  ",
"  .##########.  ",
"  ............  "};
