/* XPM */
static char * toscratch_xpm[] = {
"24 16 5 1",
" 	c None",
".	c #226BE8",
"+	c #000000",
"@	c #FFFFFF",
"#	c #6B6B6B",
"................        ",
".+++++++@@@@@@@.        ",
".+++++++@@@@++@.  ++    ",
".+++++++@@@@@@+. +  +   ",
".+++++++@@@@@@@++   +   ",
".+++++++@@@@@@@.    +   ",
".+++++++@@@@@@@. +++++++",
".+++++++@@@@@@@. +@@#@@+",
".@@@@@@@+++++++. +@@#@@+",
".@@@@@@@+++++++. +++++++",
".@@@@@@@+++++++. +@@@@@+",
".@@@@@@@+++++++. +@@@@@+",
".@@@@@@@+++++++. +@@@@@+",
".@@@@@@@+++++++. +++++++",
".@@@@@@@+++++++.        ",
"................        "};
