/* XPM */
static char * trash2_xpm[] = {
"17 13 52 1",
" 	c None",
".	c #000000",
"+	c #181D18",
"@	c #8DB063",
"#	c #8BB174",
"$	c #C8C7A3",
"%	c #6A735E",
"&	c #7B8C5B",
"*	c #3C3F30",
"=	c #8AA162",
"-	c #799A65",
";	c #88B970",
">	c #8FC174",
",	c #7CA966",
"'	c #95B97A",
")	c #4C5C41",
"!	c #1E231E",
"~	c #242F24",
"{	c #809F58",
"]	c #83965D",
"^	c #5B854E",
"/	c #98B798",
"(	c #BACA95",
"_	c #98B17E",
":	c #455C39",
"<	c #4E6437",
"[	c #567D48",
"}	c #6E9F58",
"|	c #5D965D",
"1	c #4C734C",
"2	c #476847",
"3	c #415C41",
"4	c #364B36",
"5	c #3C442F",
"6	c #58774A",
"7	c #536847",
"8	c #3B563B",
"9	c #293A29",
"0	c #516C45",
"a	c #496A3D",
"b	c #77A162",
"c	c #405134",
"d	c #345134",
"e	c #4D6E4D",
"f	c #5E5E5E",
"g	c #7EB17E",
"h	c #507144",
"i	c #638954",
"j	c #7FA16A",
"k	c #4C6140",
"l	c #607A53",
"m	c #060606",
"   ........      ",
" +.@#$%&*=-..    ",
".;>,')!~+-{]].   ",
".^#/(_=-{]]^:.   ",
".<[}||^^12345.   ",
" .+67738549+.    ",
" .0++++++++7.    ",
" .0_abc6d147.    ",
" .0_abc6de47.fff ",
" .0gabc6dh47.ffff",
" .ijabk64h:2.ffff",
"  .^^l[61h0.mf   ",
"   ........m     "};
