/* XPM */
static char * trash_xpm[] = {
"24 16 55 1",
" 	c None",
".	c #000000",
"+	c #181D18",
"@	c #8DB063",
"#	c #8BB174",
"$	c #C8C7A3",
"%	c #6A735E",
"&	c #7B8C5B",
"*	c #3C3F30",
"=	c #8AA162",
"-	c #799A65",
";	c #88B970",
">	c #8FC174",
",	c #7CA966",
"'	c #95B97A",
")	c #4C5C41",
"!	c #1E231E",
"~	c #242F24",
"{	c #809F58",
"]	c #83965D",
"^	c #71965D",
"/	c #9DC09D",
"(	c #7FA16A",
"_	c #86A85D",
":	c #758F62",
"<	c #5B854E",
"[	c #98B798",
"}	c #BACA95",
"|	c #98B17E",
"1	c #455C39",
"2	c #4E6437",
"3	c #567D48",
"4	c #6E9F58",
"5	c #5D965D",
"6	c #4C734C",
"7	c #476847",
"8	c #415C41",
"9	c #364B36",
"0	c #3C442F",
"a	c #58774A",
"b	c #536847",
"c	c #3B563B",
"d	c #293A29",
"e	c #516C45",
"f	c #496A3D",
"g	c #77A162",
"h	c #405134",
"i	c #345134",
"j	c #4D6E4D",
"k	c #060606",
"l	c #507144",
"m	c #7EB17E",
"n	c #638954",
"o	c #4C6140",
"p	c #607A53",
"       ........         ",
"     +.@#$%&*=-..       ",
"    .;>,')!~+-{]].      ",
"    .^/'(__=-{]]:.      ",
"    .<#[}|=-{]]<1.      ",
"    .23455<<67890.      ",
"     .+abb8c09d+.       ",
"     .e++++++++b.       ",
"     .e|fghai69b.       ",
"     .e|fghaij9b.kkk    ",
"     .e|fghail9b.kkkk   ",
"     .emfghail9b.kkkk   ",
"     .emfghail9b.kkkk   ",
"     .n(fgoa9l17.kkk    ",
"      .<<p3a6le.kk      ",
"       ........k        "};
