/* XPM */
static char * treeoth_xpm[] = {
"14 14 3 1",
" 	c None",
".	c #3137D8",
"+	c #FFFFFF",
"              ",
"     ....     ",
"   ........   ",
"  ....+++...  ",
"  ...++.++..  ",
" .......++... ",
" ......++.... ",
" .....++..... ",
" .....++..... ",
"  ..........  ",
"  ....++....  ",
"   ........   ",
"     ....     ",
"              "};
