/* XPM */
static char * treegam_xpm[] = {
"14 14 4 1",
" 	c None",
".	c #000000",
"+	c #3A3A3A",
"@	c #C4C4C4",
"              ",
" ............ ",
" .+++++@@@@@. ",
" .+++++@@@@@. ",
" .+++++@@@@@. ",
" .+++++@@@@@. ",
" .+++++@@@@@. ",
" .@@@@@+++++. ",
" .@@@@@+++++. ",
" .@@@@@+++++. ",
" .@@@@@+++++. ",
" .@@@@@+++++. ",
" ............ ",
"              "};
