/* XPM */
static char * treepgn_xpm[] = {
"14 14 5 1",
" 	c None",
".	c #000000",
"+	c #E0DBB1",
"@	c #F2EDBF",
"#	c #FFFAC9",
"      ........",
"      .++++++.",
"   ........++.",
"   .@@@@@@.++.",
"........@@.++.",
".######.@@.++.",
".######.@@.++.",
".######.@@.++.",
".######.@@....",
".######.@@.   ",
".######....   ",
".######.      ",
"........      ",
"              "};
