/* XPM */
static char * treeeng_xpm[] = {
"14 14 3 1",
" 	c None",
".	c #000000",
"+	c #E0DACC",
"  ..........  ",
" .++++++++++. ",
" .+........+. ",
" .+........+. ",
" .+........+. ",
" .+........+. ",
" .+........+. ",
" .+........+. ",
" .+........+. ",
" .++++++++++. ",
"  ..........  ",
" .++++++++++. ",
".++++++++++++.",
" ............ "};
