/* XPM */
static char * treepgnf_xpm[] = {
"14 14 4 1",
" 	c None",
".	c #000000",
"+	c #FFFAC9",
"@	c #999999",
".........     ",
".+++++++.     ",
".+++++++.@@   ",
".+++++++.@@   ",
".+++++++.@@   ",
".+++++++.@@   ",
".+++++++.@@   ",
".+++++++.@@   ",
".+++++++.@@   ",
".+++++++.@@   ",
".........@@   ",
"  @@@@@@@@@   ",
"  @@@@@@@@@   ",
"              "};
